<svg width="139" height="24" viewBox="0 0 139 24" fill="none" xmlns="http://www.w3.org/2000/svg">
<g clip-path="url(#clip0_103_68868)">
<path d="M13.1301 23.5L7.3541 13.3796H18.906L13.1301 23.5Z" fill="#006196"/>
<path d="M18.9042 13.3815H7.35223L13.1263 3.26111L18.9042 13.3815Z" fill="#2BA8E0"/>
<path d="M14.7027 0.5H26.2547L18.9024 13.3815L13.1283 3.26113L14.7027 0.5Z" fill="#006196"/>
<path d="M11.5519 0.5L13.1264 3.26113L7.35227 13.3815L0 0.5H11.5519Z" fill="#6ECFF5"/>
<path d="M136.67 14.7092C135.578 14.7092 134.691 15.5957 134.691 16.6914C134.691 17.7872 135.578 18.6736 136.67 18.6736C137.763 18.6736 138.65 17.7872 138.65 16.6914C138.65 15.5957 137.763 14.7092 136.67 14.7092ZM136.67 18.2757C135.797 18.2757 135.087 17.5647 135.087 16.6895C135.087 15.8144 135.797 15.1034 136.67 15.1034C137.544 15.1034 138.254 15.8144 138.254 16.6895C138.252 17.5647 137.542 18.2757 136.67 18.2757Z" fill="black"/>
<path d="M137.497 16.3105C137.497 15.9502 137.247 15.7352 136.778 15.7352H135.949V17.6439H136.271V16.8876H136.523L137.135 17.6439H137.531L136.883 16.8876C137.282 16.8518 137.497 16.6349 137.497 16.3105ZM136.273 16.6349V16.0577H136.778C137.028 16.0577 137.173 16.1652 137.173 16.3463C137.173 16.5255 137.028 16.6349 136.778 16.6349H136.273Z" fill="black"/>
<path d="M36.4977 14.9356L33.4185 5.71484H29.603L34.3055 18.6096H38.3188L42.9968 5.71484H39.5504L36.4977 14.9356Z" fill="black"/>
<path d="M54.9781 10.5958C53.108 10.3242 52.4922 10.0036 52.4922 9.19075C52.4922 8.4005 53.157 7.85922 54.3133 7.85922C54.9292 7.85922 55.3849 7.98369 55.7107 8.23831C56.0384 8.4948 56.2343 8.88144 56.3322 9.4133H59.6053C59.2852 6.45413 57.1439 5.42059 54.2889 5.42059C51.6542 5.42059 49.1927 6.75212 49.1927 9.43781C49.1927 11.9519 50.5223 12.9383 53.9423 13.4569C55.7879 13.7285 56.5525 14.0982 56.5525 14.9846C56.5525 15.8729 55.9122 16.3897 54.5337 16.3897C53.7597 16.3897 53.2286 16.2237 52.8745 15.9125C52.5205 15.6013 52.3416 15.1449 52.2681 14.5659H48.9442C49.0684 17.3515 51.0854 18.8811 54.5563 18.8811C57.9537 18.8811 59.9726 17.427 59.9726 14.6413C59.9763 11.8783 58.2042 11.0654 54.9781 10.5958Z" fill="black"/>
<path d="M65.483 14.4961L65.4849 8.2515H68.1855V5.71858H65.4849L65.483 2.82166H61.9462L61.9481 5.71858H60.3021V8.2515H61.9481L61.9462 14.8148C61.9462 17.4968 63.3944 18.8736 66.0969 18.8736C67.0536 18.8736 67.7674 18.7019 68.257 18.5303V15.7748C67.8389 15.9465 67.4472 16.02 66.9067 16.02C65.9971 16.02 65.483 15.5296 65.483 14.4961Z" fill="black"/>
<path d="M79.1799 7.62912C78.6225 6.6069 77.2081 5.42059 74.8879 5.42059C71.3154 5.42059 68.5338 8.1176 68.5338 12.1348C68.5338 15.7333 70.8069 18.8755 74.8879 18.8755C76.6733 18.8755 78.3663 18.1739 79.1799 16.6877V18.6095H82.4492V5.7167H79.1799V7.62912ZM79.2552 12.3725C79.2006 13.0175 79.0142 13.6361 78.6394 14.2019C78.0782 15.0789 77.1158 15.7994 75.5377 15.7994C72.8653 15.7994 71.8502 13.5305 71.8502 12.2159V12.1895C71.8502 10.5657 72.9727 8.50423 75.5132 8.50423C77.3852 8.50423 78.4002 9.50948 78.8805 10.4883C79.1743 11.0824 79.308 11.7274 79.2552 12.3725Z" fill="black"/>
<path d="M47.7727 5.71674H44.2435V18.6096H47.7727V5.71674Z" fill="black"/>
<path d="M45.7934 0.509432C44.8669 0.601847 44.1192 1.3506 44.0269 2.27852C43.9026 3.53083 44.946 4.57569 46.1983 4.4531C47.1249 4.36068 47.8744 3.61005 47.9648 2.68401C48.0872 1.4317 47.0458 0.386841 45.7934 0.509432Z" fill="black"/>
<path d="M100.798 5.59035H102.843V7.91015C103.657 6.45415 104.766 5.44135 107.082 5.3678V7.29342C104.495 7.41601 102.843 8.23077 102.843 11.4144V18.4983H100.798V5.59035Z" fill="black"/>
<path d="M108.572 2.48599C108.572 1.74478 109.188 1.12805 109.928 1.12805C110.668 1.12805 111.284 1.74478 111.284 2.48599C111.284 3.22719 110.668 3.84392 109.928 3.84392C109.188 3.84392 108.572 3.22719 108.572 2.48599ZM108.941 5.59037H110.986V18.4983H108.941V5.59037Z" fill="black"/>
<path d="M114.002 5.59035H116.047V7.63856C116.638 6.42963 118.067 5.3678 120.188 5.3678C122.849 5.3678 124.723 6.8238 124.723 10.5751V18.4983H122.678V10.428C122.678 8.15722 121.717 7.14443 119.646 7.14443C117.747 7.14443 116.047 8.35337 116.047 10.6732V18.4964H114.002V5.59035Z" fill="black"/>
<path d="M127.584 15.2656V7.31793H125.734V5.59034H127.584V2.65381H129.629V5.59034H132.636V7.31793H129.629V15.0676C129.629 16.3256 130.196 16.9442 131.232 16.9442C131.872 16.9442 132.365 16.8461 132.81 16.6726V18.4002C132.39 18.5492 131.898 18.6718 131.06 18.6718C128.717 18.6718 127.584 17.2893 127.584 15.2656Z" fill="black"/>
<path d="M87.9786 5.59034V7.57632C89.1519 6.19387 90.6623 5.36591 92.5248 5.36591C96.5606 5.36591 99.1709 8.1723 99.1709 12.0764C99.1709 15.9446 96.4571 18.6887 92.8337 18.6887C90.5229 18.6887 88.7357 17.7325 87.9428 16.2822V23.5H85.9014V5.59034H87.9786ZM92.5323 16.9479C95.3026 16.9479 97.0823 14.8658 97.0823 12.1707C97.0823 9.19452 95.3026 7.06709 92.5323 7.06709C89.7621 7.06709 87.9447 9.24168 87.9447 12.1707C87.9447 14.8997 89.7602 16.9479 92.5323 16.9479Z" fill="black"/>
</g>
<defs>
<clipPath id="clip0_103_68868">
<rect width="139" height="24" fill="white"/>
</clipPath>
</defs>
</svg>
